# Alias OBJ Model File
# Exported from SketchUp, (c) 2000-2012 Trimble Navigation Limited
# File units = meters

mtllib Table.mtl

g Mesh1 Model

usemtl FrontColor
v 0 -0.02 -0
vt 0 0
vn 0 -1 -0
v 0 -0.02 -2.85
vt 0 112.205
v 0.85 -0.02 -2.85
vt -33.4646 112.205
v 0.85 -0.02 -0
vt -33.4646 0
f 1/1/1 2/2/1 3/3/1 4/4/1 

vt -112.205 -0.787402
vn -1 0 -0
vt 0 -0.787402
v 0 -2.81997e-18 -0
vt 0 -1.11022e-16
v 0 -2.81997e-18 -2.85
vt -112.205 -1.11022e-16
f 2/5/2 1/6/2 5/7/2 6/8/2 

vn 0 0 1
vt 33.4646 -0.787402
v 0.85 -2.81997e-18 -0
vt 33.4646 -1.11022e-16
f 1/6/3 4/9/3 7/10/3 5/7/3 

vn 1 0 -0
vt 112.205 -0.787402
v 0.85 -2.81997e-18 -2.85
vt 112.205 -1.11022e-16
f 4/6/4 3/11/4 8/12/4 7/7/4 

vt -33.4646 -0.787402
vn 0 0 -1
vt -33.4646 -1.11022e-16
f 3/13/5 2/6/5 6/7/5 8/14/5 

vn 0 1 -0
vt 33.4646 0
vt 33.4646 112.205
f 6/2/6 5/1/6 7/15/6 8/16/6 

