# ProBuilder 5.0.7
# https://unity3d.com/unity/features/worldbuilding/probuilder
# 11/15/2023 10:25:05 AM

mtllib ./Arch_(1).mtl
o Arch (1)

g Arch (1)
v 0.2997688 -1.735565 -0.06856624
v 0.3997689 -1.735565 -0.06856623
v 0.2997688 -1.735565 -1.068566
v 0.3997689 -1.735565 -1.068567
v 0.2997687 0.5675576 -1.068566
v 0.3111629 0.7412058 -1.068566
v 0.2997687 0.5675576 -0.06856632
v 0.3111629 0.7412058 -0.06856632
v 0.4096437 0.723841 -1.068566
v 0.3997687 0.5675576 -1.068566
v 0.4096437 0.723841 -0.06856632
v 0.3997687 0.5675576 -0.06856632
v 0.3449992 0.9095777 -1.068566
v 0.3449992 0.9095777 -0.06856632
v 0.4389685 0.8753757 -1.068566
v 0.4389685 0.8753757 -0.06856632
v 0.4002497 1.067558 -1.068566
v 0.4002497 1.067558 -0.06856632
v 0.4868522 1.017558 -1.068566
v 0.4868522 1.017558 -0.06856632
v 0.4752353 1.210345 -1.068566
v 0.4752353 1.210345 -0.06856632
v 0.5518398 1.146066 -1.068566
v 0.5518398 1.146066 -0.06856632
v 0.567678 1.333602 -1.068566
v 0.567678 1.333602 -0.06856632
v 0.6319567 1.256998 -1.068566
v 0.6319567 1.256998 -0.06856632
v 0.6747687 1.433583 -1.068566
v 0.6747687 1.433583 -0.06856632
v 0.7247688 1.34698 -1.068566
v 0.7247688 1.34698 -0.06856632
v 0.7932535 1.50725 -1.068566
v 0.7932535 1.50725 -0.06856632
v 0.8274556 1.413281 -1.068566
v 0.8274556 1.413281 -0.06856632
v 0.9195325 1.552365 -1.068566
v 0.9195325 1.552365 -0.06856632
v 0.9368973 1.453884 -1.068566
v 0.9368973 1.453884 -0.06856632
v 1.049769 1.567558 -1.068566
v 1.049769 1.567558 -0.06856632
v 1.049769 1.467558 -1.068566
v 1.049769 1.467558 -0.06856632
v 1.180005 1.552365 -1.068566
v 1.180005 1.552365 -0.06856632
v 1.16264 1.453884 -1.068566
v 1.16264 1.453884 -0.06856632
v 1.306284 1.50725 -1.068566
v 1.306284 1.50725 -0.06856632
v 1.272082 1.413281 -1.068566
v 1.272082 1.413281 -0.06856632
v 1.424769 1.433583 -1.068566
v 1.424769 1.433583 -0.06856632
v 1.374769 1.34698 -1.068566
v 1.374769 1.34698 -0.06856632
v 1.531859 1.333602 -1.068566
v 1.531859 1.333602 -0.06856632
v 1.467581 1.256998 -1.068566
v 1.467581 1.256998 -0.06856632
v 1.624302 1.210345 -1.068566
v 1.624302 1.210345 -0.06856632
v 1.547698 1.146066 -1.068566
v 1.547698 1.146066 -0.06856632
v 1.699288 1.067558 -1.068566
v 1.699288 1.067558 -0.06856632
v 1.612685 1.017558 -1.068566
v 1.612685 1.017558 -0.06856632
v 1.754538 0.9095778 -1.068566
v 1.754538 0.9095778 -0.06856632
v 1.660569 0.8753757 -1.068566
v 1.660569 0.8753757 -0.06856632
v 1.788374 0.7412059 -1.068566
v 1.788374 0.7412059 -0.06856632
v 1.689894 0.7238411 -1.068566
v 1.689894 0.7238411 -0.06856632
v 1.799769 0.5675575 -1.068566
v 1.799769 0.5675575 -0.06856632
v 1.699769 0.5675575 -1.068566
v 1.699769 0.5675575 -0.06856632
v 1.699769 -1.735565 -0.06856623
v 1.799769 -1.735565 -0.06856623
v 1.699769 -1.735565 -1.068567
v 1.799769 -1.735565 -1.068567
v 1.699769 -0.4324425 -0.06856632
v 1.799769 -0.4324425 -0.06856632
v 1.699769 -0.4324425 -1.068566
v 1.799769 -0.4324425 -1.068566
v 0.2997687 -0.4324424 -0.06856632
v 0.3997687 -0.4324424 -0.06856632
v 0.2997687 -0.4324424 -1.068566
v 0.3997687 -0.4324424 -1.068566

vt 0.2997688 -0.06856624
vt 0.3997689 -0.06856623
vt 0.2997688 -1.068566
vt 0.3997689 -1.068567
vt -1.068566 0.5859673
vt -1.068566 0.759989
vt -0.06856632 0.5859673
vt -0.06856632 0.759989
vt 1.068566 0.7482328
vt 1.068566 0.5916377
vt 0.06856632 0.7482328
vt 0.06856632 0.5916377
vt -1.068566 0.7879835
vt -1.068566 0.9597217
vt -0.06856632 0.7879835
vt -0.06856632 0.9597217
vt 1.068566 0.9428323
vt 1.068566 0.7884861
vt 0.06856632 0.9428323
vt 0.06856632 0.7884861
vt -1.068566 0.9724771
vt -1.068566 1.13984
vt -0.06856632 0.9724771
vt -0.06856632 1.13984
vt 1.068566 1.119725
vt 1.068566 0.9696961
vt 0.06856632 1.119725
vt 0.06856632 0.9696961
vt -1.068566 1.131245
vt -1.068566 1.292525
vt -0.06856632 1.131245
vt -0.06856632 1.292525
vt 1.068566 1.271764
vt 1.068566 1.127757
vt 0.06856632 1.271764
vt 0.06856632 1.127757
vt -1.068566 1.253417
vt -1.068566 1.407489
vt -0.06856632 1.253417
vt -0.06856632 1.407489
vt 1.068566 1.389027
vt 1.068566 1.252189
vt 0.06856632 1.389027
vt 0.06856632 1.252189
vt -1.325032 -1.068566
vt -1.47154 -1.068566
vt -1.325032 -0.06856632
vt -1.47154 -0.06856632
vt 1.457964 -1.068566
vt 1.328693 -1.068566
vt 1.457964 -0.06856632
vt 1.328693 -0.06856632
vt -1.329984 -1.068566
vt -1.469503 -1.068566
vt -1.329984 -0.06856632
vt -1.469503 -0.06856632
vt 1.461745 -1.068566
vt 1.339514 -1.068566
vt 1.461745 -0.06856632
vt 1.339514 -0.06856632
vt -1.254108 -1.068566
vt -1.388205 -1.068566
vt -1.254108 -0.06856632
vt -1.388205 -0.06856632
vt 1.384109 -1.068566
vt 1.267378 -1.068566
vt 1.384109 -0.06856632
vt 1.267378 -0.06856632
vt -1.093206 -1.068566
vt -1.224325 -1.068566
vt -1.093206 -0.06856632
vt -1.224325 -0.06856632
vt 1.218637 -1.068566
vt 1.104941 -1.068566
vt 1.218637 -0.06856632
vt 1.104941 -0.06856632
vt -0.8610716 -1.068566
vt -0.9921909 -1.068566
vt -0.8610716 -0.06856632
vt -0.9921909 -0.06856632
vt 0.9793588 -1.068566
vt 0.8656623 -1.068566
vt 0.9793588 -0.06856632
vt 0.8656623 -0.06856632
vt -0.5889406 -1.068566
vt -0.7230365 -1.068566
vt -0.5889406 -0.06856632
vt -0.7230365 -0.06856632
vt 0.7010531 -1.068566
vt 0.584322 -1.068566
vt 0.7010531 -0.06856632
vt 0.584322 -0.06856632
vt -0.3135068 -1.068566
vt -0.4530258 -1.068566
vt -0.3135068 -0.06856632
vt -0.4530258 -0.06856632
vt 0.4243233 -1.068566
vt 0.3020925 -1.068566
vt 0.4243233 -0.06856632
vt 0.3020925 -0.06856632
vt -0.06312624 -1.068566
vt -0.2096343 -1.068566
vt -0.06312624 -0.06856632
vt -0.2096343 -0.06856632
vt 0.1787004 -1.068566
vt 0.04942948 -1.068566
vt 0.1787004 -0.06856632
vt 0.04942948 -0.06856632
vt 1.068566 0.1477657
vt 1.068566 -0.006305269
vt 0.06856632 0.1477657
vt 0.06856632 -0.006305269
vt -1.068566 0.02293086
vt -1.068566 0.1597681
vt -0.06856632 0.02293086
vt -0.06856632 0.1597681
vt 1.068566 0.3163633
vt 1.068566 0.1550836
vt 0.06856632 0.3163633
vt 0.06856632 0.1550836
vt -1.068566 0.1802727
vt -1.068566 0.3242793
vt -0.06856632 0.1802727
vt -0.06856632 0.3242793
vt 1.068566 0.4467309
vt 1.068566 0.2793683
vt 0.06856632 0.4467309
vt 0.06856632 0.2793683
vt -1.068566 0.2995984
vt -1.068566 0.4496269
vt -0.06856632 0.2995984
vt -0.06856632 0.4496269
vt 1.068566 0.5460661
vt 1.068566 0.3743279
vt 0.06856632 0.5460661
vt 0.06856632 0.3743279
vt -1.068566 0.3895874
vt -1.068566 0.5439335
vt -0.06856632 0.3895874
vt -0.06856632 0.5439335
vt 1.068566 0.6225197
vt 1.068566 0.4484979
vt 0.06856632 0.6225197
vt 0.06856632 0.4484979
vt -1.068566 0.45924
vt -1.068566 0.6158352
vt -0.06856632 0.45924
vt -0.06856632 0.6158352
vt 1.699769 -0.06856623
vt 1.799769 -0.06856623
vt 1.699769 -1.068567
vt 1.799769 -1.068567
vt 0.2997687 0.5675576
vt 0.3111629 0.7412058
vt 0.3997687 0.5675576
vt 0.4096437 0.723841
vt -0.3111629 0.7412058
vt -0.2997687 0.5675576
vt -0.4096437 0.723841
vt -0.3997687 0.5675576
vt 0.3449992 0.9095777
vt 0.4389685 0.8753757
vt -0.3449992 0.9095777
vt -0.4389685 0.8753757
vt 0.4002497 1.067558
vt 0.4868522 1.017558
vt -0.4002497 1.067558
vt -0.4868522 1.017558
vt 0.4752353 1.210345
vt 0.5518398 1.146066
vt -0.4752353 1.210345
vt -0.5518398 1.146066
vt 0.567678 1.333602
vt 0.6319567 1.256998
vt -0.567678 1.333602
vt -0.6319567 1.256998
vt 0.6747687 1.433583
vt 0.7247688 1.34698
vt -0.6747687 1.433583
vt -0.7247688 1.34698
vt 0.7932535 1.50725
vt 0.8274556 1.413281
vt -0.7932535 1.50725
vt -0.8274556 1.413281
vt 0.9195325 1.552365
vt 0.9368973 1.453884
vt -0.9195325 1.552365
vt -0.9368973 1.453884
vt 1.049769 1.567558
vt 1.049769 1.467558
vt -1.049769 1.567558
vt -1.049769 1.467558
vt 1.180005 1.552365
vt 1.16264 1.453884
vt -1.180005 1.552365
vt -1.16264 1.453884
vt 1.306284 1.50725
vt 1.272082 1.413281
vt -1.306284 1.50725
vt -1.272082 1.413281
vt 1.424769 1.433583
vt 1.374769 1.34698
vt -1.424769 1.433583
vt -1.374769 1.34698
vt 1.531859 1.333602
vt 1.467581 1.256998
vt -1.531859 1.333602
vt -1.467581 1.256998
vt 1.624302 1.210345
vt 1.547698 1.146066
vt -1.624302 1.210345
vt -1.547698 1.146066
vt 1.699288 1.067558
vt 1.612685 1.017558
vt -1.699288 1.067558
vt -1.612685 1.017558
vt 1.754538 0.9095778
vt 1.660569 0.8753757
vt -1.754538 0.9095778
vt -1.660569 0.8753757
vt 1.788374 0.7412059
vt 1.689894 0.7238411
vt -1.788374 0.7412059
vt -1.689894 0.7238411
vt 1.799769 0.5675575
vt 1.699769 0.5675575
vt -1.799769 0.5675575
vt -1.699769 0.5675575
vt 1.699769 -0.4324425
vt 1.799769 -0.4324425
vt -1.068566 0.5675575
vt -0.06856632 0.5675575
vt -1.068566 -0.4324425
vt -0.06856632 -0.4324425
vt 0.06856632 0.5675575
vt 1.068566 0.5675575
vt 0.06856632 -0.4324425
vt 1.068566 -0.4324425
vt -1.799769 -0.4324425
vt -1.699769 -0.4324425
vt 0.2997687 -0.4324424
vt 0.3997687 -0.4324424
vt -0.3997687 -0.4324424
vt -0.2997687 -0.4324424
vt 0.2997688 -1.735565
vt 0.3997689 -1.735565
vt -1.068566 -1.735565
vt -0.06856624 -1.735565
vt 0.06856623 -1.735565
vt 1.068567 -1.735565
vt -0.3997689 -1.735565
vt -0.2997688 -1.735565
vt 1.699769 -1.735565
vt 1.799769 -1.735565
vt -1.799769 -1.735565
vt -1.699769 -1.735565

vn 0 -1 0
vn -0.9978542 0.06547577 0
vn -0.991311 0.1315391 0
vn 0.99193 -0.1267869 0
vn 0.9980097 -0.06306074 0
vn -0.964467 0.2642032 0
vn 0.9669018 -0.2551488 0
vn -0.91712 0.3986112 0
vn 0.9224088 -0.3862149 0
vn -0.8453721 0.5341778 0
vn 0.8541703 -0.5199932 0
vn -0.7440997 0.6680686 0
vn 0.7562855 -0.6542417 0
vn -0.6081003 0.7938602 0
vn 0.6222543 -0.7828152 0
vn -0.4346894 0.9005805 0
vn 0.4477884 -0.8941396 0
vn -0.227617 0.9737507 0
vn 0.2356698 -0.9718332 0
vn 0 1 0
vn 0.2276171 0.9737507 0
vn -0.2356698 -0.9718332 0
vn 0.4346893 0.9005805 0
vn -0.447788 -0.8941398 0
vn 0.6081001 0.7938603 0
vn -0.6222543 -0.7828152 0
vn 0.7440996 0.6680688 0
vn -0.7562858 -0.6542414 0
vn 0.8453721 0.5341778 0
vn -0.8541703 -0.5199934 0
vn 0.91712 0.3986112 0
vn -0.9224087 -0.3862152 0
vn 0.964467 0.2642032 0
vn -0.9669018 -0.2551489 0
vn 0.991311 0.131539 0
vn -0.9817854 -0.1899937 0
vn 0.9978542 0.06547605 0
vn -0.9980097 -0.06306029 0
vn 0 0 1
vn 0 0 -1
vn -1 0 0
vn 1 0 0

usemtl ProBuilderDefault
f 3/3/1 4/4/1 2/2/1 1/1/1
f 7/7/2 8/8/3 6/6/3 5/5/2
f 11/11/4 12/12/5 10/10/5 9/9/4
f 8/15/3 14/16/6 13/14/6 6/13/3
f 16/19/7 11/20/4 9/18/4 15/17/7
f 14/23/6 18/24/8 17/22/8 13/21/6
f 20/27/9 16/28/7 15/26/7 19/25/9
f 18/31/8 22/32/10 21/30/10 17/29/8
f 24/35/11 20/36/9 19/34/9 23/33/11
f 22/39/10 26/40/12 25/38/12 21/37/10
f 28/43/13 24/44/11 23/42/11 27/41/13
f 26/47/12 30/48/14 29/46/14 25/45/12
f 32/51/15 28/52/13 27/50/13 31/49/15
f 30/55/14 34/56/16 33/54/16 29/53/14
f 36/59/17 32/60/15 31/58/15 35/57/17
f 34/63/16 38/64/18 37/62/18 33/61/16
f 40/67/19 36/68/17 35/66/17 39/65/19
f 38/71/18 42/72/20 41/70/20 37/69/18
f 44/75/1 40/76/19 39/74/19 43/73/1
f 42/79/20 46/80/21 45/78/21 41/77/20
f 48/83/22 44/84/1 43/82/1 47/81/22
f 46/87/21 50/88/23 49/86/23 45/85/21
f 52/91/24 48/92/22 47/90/22 51/89/24
f 50/95/23 54/96/25 53/94/25 49/93/23
f 56/99/26 52/100/24 51/98/24 55/97/26
f 54/103/25 58/104/27 57/102/27 53/101/25
f 60/107/28 56/108/26 55/106/26 59/105/28
f 58/111/27 62/112/29 61/110/29 57/109/27
f 64/115/30 60/116/28 59/114/28 63/113/30
f 62/119/29 66/120/31 65/118/31 61/117/29
f 68/123/32 64/124/30 63/122/30 67/121/32
f 66/127/31 70/128/33 69/126/33 65/125/31
f 72/131/34 68/132/32 67/130/32 71/129/34
f 70/135/33 74/136/35 73/134/35 69/133/33
f 76/139/36 72/140/34 71/138/34 75/137/36
f 74/143/35 78/144/37 77/142/37 73/141/35
f 80/147/38 76/148/38 75/146/38 79/145/38
f 83/151/1 84/152/1 82/150/1 81/149/1
f 12/155/39 11/156/39 8/154/39 7/153/39
f 9/159/40 10/160/40 5/158/40 6/157/40
f 11/156/39 16/162/39 14/161/39 8/154/39
f 15/164/40 9/159/40 6/157/40 13/163/40
f 16/162/39 20/166/39 18/165/39 14/161/39
f 19/168/40 15/164/40 13/163/40 17/167/40
f 20/166/39 24/170/39 22/169/39 18/165/39
f 23/172/40 19/168/40 17/167/40 21/171/40
f 24/170/39 28/174/39 26/173/39 22/169/39
f 27/176/40 23/172/40 21/171/40 25/175/40
f 28/174/39 32/178/39 30/177/39 26/173/39
f 31/180/40 27/176/40 25/175/40 29/179/40
f 32/178/39 36/182/39 34/181/39 30/177/39
f 35/184/40 31/180/40 29/179/40 33/183/40
f 36/182/39 40/186/39 38/185/39 34/181/39
f 39/188/40 35/184/40 33/183/40 37/187/40
f 40/186/39 44/190/39 42/189/39 38/185/39
f 43/192/40 39/188/40 37/187/40 41/191/40
f 44/190/39 48/194/39 46/193/39 42/189/39
f 47/196/40 43/192/40 41/191/40 45/195/40
f 48/194/39 52/198/39 50/197/39 46/193/39
f 51/200/40 47/196/40 45/195/40 49/199/40
f 52/198/39 56/202/39 54/201/39 50/197/39
f 55/204/40 51/200/40 49/199/40 53/203/40
f 56/202/39 60/206/39 58/205/39 54/201/39
f 59/208/40 55/204/40 53/203/40 57/207/40
f 60/206/39 64/210/39 62/209/39 58/205/39
f 63/212/40 59/208/40 57/207/40 61/211/40
f 64/210/39 68/214/39 66/213/39 62/209/39
f 67/216/40 63/212/40 61/211/40 65/215/40
f 68/214/39 72/218/39 70/217/39 66/213/39
f 71/220/40 67/216/40 65/215/40 69/219/40
f 72/218/39 76/222/39 74/221/39 70/217/39
f 75/224/40 71/220/40 69/219/40 73/223/40
f 76/222/39 80/226/39 78/225/39 74/221/39
f 79/228/40 75/224/40 73/223/40 77/227/40
f 85/229/39 86/230/39 78/225/39 80/226/39
f 87/233/41 85/234/41 80/232/41 79/231/41
f 86/237/42 88/238/42 77/236/42 78/235/42
f 88/239/40 87/240/40 79/228/40 77/227/40
f 89/241/39 90/242/39 12/155/39 7/153/39
f 91/233/41 89/234/41 7/232/41 5/231/41
f 90/237/42 92/238/42 10/236/42 12/235/42
f 92/243/40 91/244/40 5/158/40 10/160/40
f 1/245/39 2/246/39 90/242/39 89/241/39
f 3/247/41 1/248/41 89/234/41 91/233/41
f 2/249/42 4/250/42 92/238/42 90/237/42
f 4/251/40 3/252/40 91/244/40 92/243/40
f 81/253/39 82/254/39 86/230/39 85/229/39
f 83/247/41 81/248/41 85/234/41 87/233/41
f 82/249/42 84/250/42 88/238/42 86/237/42
f 84/255/40 83/256/40 87/240/40 88/239/40

